<svg width="39" height="33" viewBox="0 0 39 33" fill="none" xmlns="http://www.w3.org/2000/svg">
<path d="M13.3354 0.373892C18.0919 -0.205573 22.8921 -0.00160708 27.6619 0.253891C28.2923 0.234792 28.9212 0.111187 29.552 0.182179C30.0922 0.247405 30.5762 0.536416 31.0091 0.860023C31.8813 1.52417 32.613 2.36743 33.2347 3.27915C33.9702 4.37321 34.1303 5.76062 34.8718 6.85288C35.8505 8.25794 37.4115 9.10119 38.3416 10.5484C38.9699 11.4875 39.0762 12.6915 38.9573 13.7967C38.8543 14.7895 38.3497 15.6879 37.6987 16.4083C36.8289 17.3604 35.8306 18.2166 35.1814 19.3568C34.7537 20.1071 34.5891 20.9795 34.1698 21.7323C33.1714 23.2721 31.7139 24.4224 30.1925 25.3716C27.9918 26.7352 25.5971 27.7104 23.2989 28.8765C22.2195 29.4153 21.1823 30.0445 20.0767 30.527C19.056 30.9847 17.9389 31.1036 16.8539 31.3065C15.9101 31.4549 14.9886 31.7187 14.0574 31.931C11.7735 32.4413 9.42177 32.8377 7.08091 32.5814C5.48121 32.4041 3.85494 31.8092 2.73151 30.5785C2.29506 30.0711 1.88797 29.5075 1.65979 28.8672C1.52736 26.9226 1.78419 24.9824 2.03019 23.0592C2.26292 21.2076 2.40304 19.3071 2.01482 17.4667C1.63848 16.009 0.745673 14.769 0.29665 13.3391C-0.0552299 12.2569 -0.133852 11.0374 0.279528 9.96174C0.948695 8.69434 2.27899 7.95631 2.89155 6.64711C3.24063 5.95053 3.30947 5.15268 3.28536 4.3815C4.38014 3.25212 5.75062 2.44599 7.18365 1.86472C9.15271 1.06579 11.243 0.642364 13.3354 0.373892Z" fill="url(#paint0_linear_114606_9)"/>
<path d="M11.0642 2.1224C15.8934 1.42895 20.7863 1.1311 25.6635 1.30481C26.8138 1.37866 27.9715 1.30657 29.1178 1.44618C30.0879 1.57488 30.9634 2.1224 31.5922 2.85068C33.0837 4.56639 33.545 6.91859 35.0682 8.61285C34.4138 8.68142 33.7604 8.49786 33.1089 8.58507C32.9134 8.6023 32.7406 8.70041 32.5839 8.81013C33.5749 8.6867 34.6114 8.72292 35.5395 9.1224C36.8088 9.63757 37.8471 10.7203 38.2332 12.0302C38.5307 13.0511 38.3697 14.1799 37.8372 15.098C37.213 16.1804 36.1921 17.0012 35.0582 17.5181C35.1108 17.5424 35.1645 17.5656 35.2182 17.5902C35.424 17.5135 35.607 17.3929 35.7898 17.2751C35.8153 17.3271 35.8662 17.4326 35.8918 17.4847C35.5996 17.6739 35.2804 17.8384 35.0646 18.1194C34.5549 18.7341 34.3957 19.5338 34.1074 20.2564C33.7995 21.0955 33.2102 21.7931 32.5839 22.4198C31.0753 23.8637 29.217 24.8729 27.359 25.8048C26.0303 26.4473 24.6799 27.0451 23.3452 27.6752C22.1757 28.2147 21.0856 28.9032 19.9125 29.4345C19.6524 29.5407 19.3932 29.6684 19.1099 29.6972C18.7097 29.7007 18.3137 29.5865 17.9124 29.6325C17.21 29.7064 16.5567 29.9887 15.8952 30.2138C14.5249 30.7272 13.075 30.9811 11.6311 31.1879C10.006 31.4013 8.35344 31.4977 6.7226 31.2906C5.39035 31.1123 3.99731 30.7314 3.01803 29.7665C2.49657 29.2165 2.06362 28.49 2.13365 27.7093C2.11623 24.574 2.96435 21.4816 2.70416 18.341C2.59503 17.3813 2.43757 16.3893 1.92357 15.5502C1.51835 14.8445 0.939669 14.215 0.744168 13.4094C0.555775 12.4515 0.540135 11.4109 0.982679 10.516C1.53755 9.35484 2.80511 8.72011 3.33012 7.53891C3.61413 6.92597 3.63794 6.2392 3.59778 5.57809C4.97375 3.98862 6.89749 2.82887 8.98651 2.44733C10.4126 2.17375 11.8558 2.4716 13.2861 2.54087C16.1607 2.72549 18.9628 1.7486 21.8363 1.88539C23.1586 1.9719 24.4496 2.34922 25.6454 2.90729C26.9648 3.52022 28.1552 4.36208 29.3855 5.12727C29.7793 5.35936 30.1661 5.61326 30.5958 5.77994C29.3034 4.7707 27.9757 3.78396 26.5244 3.00646C25.0002 2.19696 23.2969 1.69902 21.5633 1.64697C18.6905 1.55695 15.8788 2.38052 13.006 2.33023C12.3552 2.30948 11.6983 2.27362 11.0642 2.1224Z" fill="#FCFCFC"/>
<path d="M18.183 2.66566C20.4908 2.36562 22.894 2.48357 25.1003 3.2233C26.4483 3.67336 27.7081 4.36531 28.7579 5.27812C29.0983 5.59286 29.4583 5.89891 29.7144 6.28114C27.9074 4.76291 25.7561 3.54773 23.3665 3.04889C21.9181 2.73248 20.4151 2.67435 18.9356 2.79998C17.7815 2.91558 16.6861 3.34325 15.5202 3.38435C13.3806 3.51666 11.24 3.29714 9.11761 3.05424C8.90902 3.03519 8.70149 2.99777 8.49218 3.00546C8.12463 3.1782 7.8446 3.4936 7.42883 3.57914C7.70494 3.14545 8.20036 2.86179 8.73257 2.80265C9.79341 2.68638 10.8221 3.02083 11.8662 3.12674C13.985 3.30282 16.0935 2.95668 18.183 2.66566Z" fill="url(#paint1_linear_114606_9)"/>
<path d="M19.813 3.86424C21.8361 3.63099 23.95 3.79434 25.8333 4.69295C26.7065 5.13142 27.6085 5.82594 27.8571 6.9092C27.2268 5.67193 26.0267 4.96022 24.8327 4.56661C23.0084 3.97526 21.0774 3.89228 19.1905 3.99544C19.391 3.91881 19.6017 3.88143 19.813 3.86424Z" fill="url(#paint2_linear_114606_9)"/>
<path d="M9.01262 4.78246C10.4162 4.31377 11.9436 4.2926 13.3812 4.60877C13.6452 4.66762 13.9386 4.66942 14.1675 4.83306C14.321 4.9174 14.1819 5.0875 14.1503 5.20055C12.869 4.67946 11.4518 4.50039 10.0888 4.72073C9.26572 4.87254 8.4223 5.22531 7.90278 5.92512C7.67737 6.21652 7.56975 6.57289 7.42883 6.90915C7.45583 6.38735 7.64512 5.89677 7.87298 5.43633C8.1727 5.10294 8.60353 4.93211 9.01262 4.78246Z" fill="url(#paint3_linear_114606_9)"/>
<path d="M19.3661 4.46814C19.5073 4.31278 19.6671 4.44872 19.8093 4.52086C19.3408 4.8189 18.9904 5.31709 18.8096 5.88741C18.7836 6.22746 18.8292 6.57742 18.7351 6.90915C18.5255 6.48389 18.5634 5.97579 18.5993 5.5101C18.8967 5.20175 19.0568 4.76143 19.3661 4.46814Z" fill="url(#paint4_linear_114606_9)"/>
<path d="M13 5.74542C13.0888 5.71246 13.1779 5.68237 13.2681 5.653C13.3613 5.90338 13.4708 6.14446 13.6198 6.3472C13.6134 6.95328 13.6261 7.55936 13.6134 8.16544C13.2391 7.72915 13.593 7.03746 13.4609 6.49764C13.3177 6.23508 13.1092 6.03986 13 5.74542Z" fill="url(#paint5_linear_114606_9)"/>
<path d="M21.5498 6.45605C23.0255 6.16478 24.611 6.19697 26.003 6.86306C26.8907 7.28118 27.6559 8.10708 27.8568 9.16407C27.619 9.36796 27.3464 9.55039 27.0348 9.55844C26.3216 9.59369 25.6618 9.21696 24.9567 9.16484C23.003 8.99315 21.073 9.66345 19.3767 10.6779C18.9445 10.1981 18.2133 10.0283 17.9992 9.3396C17.8342 8.90883 18.1377 8.51754 18.3663 8.19752C19.1749 7.19763 20.3815 6.72011 21.5498 6.45605Z" fill="url(#paint6_linear_114606_9)"/>
<path d="M19.8231 8.35218C20.5101 7.95314 21.3014 7.76797 22.0615 7.53728C21.9654 7.92353 22.2284 8.25086 22.2857 8.61872C21.7629 8.56198 21.2432 8.69634 20.7965 8.9501C20.3153 9.20854 19.7761 9.57234 19.1971 9.35537C19.1408 8.92111 19.4525 8.56042 19.8231 8.35218Z" fill="#FCFCFC"/>
<path d="M8.88651 7.67059C9.98722 7.38931 11.1532 7.58432 12.209 7.96491C12.9208 8.24583 13.6642 8.61047 14.0895 9.29626C14.5349 9.16287 15.0384 8.96243 15.4764 9.23319C15.4676 9.41406 15.4739 9.62864 15.3274 9.7566C14.9781 10.1147 14.3946 10.0665 14.0815 10.4812C14.0804 11.1307 14.0843 11.7803 14.0787 12.4298C13.5348 13.0554 12.5077 13.1779 12.2504 14.0642C12.6855 14.8435 13.2234 15.6822 14.0923 15.9791C14.4423 16.007 14.6678 15.6739 14.9637 15.5394C15.0717 15.6054 15.1794 15.6732 15.2863 15.7417C15.1166 16.1752 14.9083 16.6417 14.4988 16.8831C14.2305 17.0353 13.9135 16.936 13.6705 16.7809C12.8219 16.2317 12.3293 15.2683 11.4898 14.7079C11.3211 14.8982 11.1318 15.1581 10.8526 15.1313C10.7117 14.9399 10.6559 14.7007 10.5546 14.4872C9.76631 14.6894 9.12355 15.4985 8.25813 15.352C10.1668 14.5633 11.6613 13.0692 13.2736 11.8027C13.2736 11.3043 13.2736 10.8052 13.2736 10.3061C12.5169 9.83815 11.6174 9.74645 10.7573 9.65909C9.63972 9.54238 8.47905 9.53948 7.42883 9.0766C7.58242 8.34913 8.20799 7.83479 8.88651 7.67059Z" fill="url(#paint7_linear_114606_9)"/>
<path d="M26.0001 8.18995C26.196 8.12841 26.414 8.17432 26.5635 8.43076C26.6297 8.51425 26.6193 8.66758 26.6193 8.79364C26.478 8.57212 26.2939 8.58077 26.1193 8.5362C26.0219 8.51924 26.02 8.32 26.0001 8.18995Z" fill="#FCFCFC"/>
<path d="M8.66644 8.30335C9.10237 8.3568 9.53418 8.1701 9.97011 8.16634C10.1798 8.15128 10.3745 8.35153 10.5236 8.66771C10.1596 8.64437 9.79738 8.70233 9.43514 8.77761C9.16474 8.82354 8.85425 8.8002 8.66644 8.30335Z" fill="#FCFCFC"/>
<path d="M28.4761 8.17895C29.1156 8.06461 29.6881 8.72533 30.3332 8.51616C30.2263 9.46719 29.3049 9.68006 28.8647 9.10311C29.158 9.03567 29.5515 9.23536 29.7362 8.78592C29.2939 8.73482 28.813 8.66316 28.4761 8.17895Z" fill="url(#paint8_linear_114606_9)"/>
<path d="M4.03256 8.95397C4.63444 9.05697 5.23431 8.91369 5.82753 8.81532C6.17773 8.7476 6.56123 8.83349 6.8099 9.11899C5.73965 8.96858 4.62245 8.98747 3.60579 9.41554C2.75525 9.75308 1.98127 10.4356 1.66436 11.3656C1.37474 12.185 1.46063 13.0992 1.70863 13.9176C1.76656 14.089 1.80684 14.2908 1.95497 14.4023C2.46463 14.8147 3.16238 14.8172 3.67038 15.2271C3.82384 15.3354 3.78289 15.5343 3.7769 15.7026C3.54421 15.5418 3.3255 15.354 3.06617 15.2442C2.57715 15.0161 2.0129 14.9067 1.62274 14.4889C1.24691 13.6028 1.13006 12.5728 1.34644 11.6218C1.62008 10.3882 2.53021 9.37348 3.62876 8.93365C3.75992 8.88197 3.89874 8.94648 4.03256 8.95397Z" fill="url(#paint9_linear_114606_9)"/>
<path d="M32.1905 8.90047C32.6605 8.75415 33.1633 8.8056 33.6502 8.79357C34.5608 8.78655 35.5315 8.991 36.2189 9.605C36.8383 10.1739 37.0785 11.0171 37.1278 11.8192C37.172 12.2768 37.1068 12.7335 37.0933 13.1901C37.0422 13.1344 36.9908 13.0789 36.9397 13.0241C37.0129 12.3136 36.9936 11.595 36.9187 10.8861C36.6192 10.1799 36.0677 9.53485 35.3169 9.25524C34.3224 8.86974 33.2312 9.01238 32.1905 8.90047Z" fill="url(#paint10_linear_114606_9)"/>
<path d="M28.4761 9.50209C28.7179 9.25287 28.9842 9.62429 29.0959 10.0489C28.8551 10.0659 28.6422 9.82452 28.4761 9.50209Z" fill="url(#paint11_linear_114606_9)"/>
<path d="M30.9461 9.52333C32.1304 9.27264 33.4308 9.47849 34.4268 10.2197C35.3303 10.8776 35.9598 11.9947 35.9012 13.1656C35.8837 14.1639 35.3425 15.0725 34.6272 15.7027C34.3447 15.0553 34.7187 14.4134 34.9252 13.8138C35.1914 13.132 35.0442 12.3545 34.7269 11.7212C34.414 11.0813 33.8159 10.627 33.1593 10.4405C32.5748 10.2511 31.9557 10.2761 31.353 10.3142C30.7403 10.9352 29.9218 11.2651 29.1112 11.4937C28.0477 11.7739 26.9302 11.8598 25.8445 11.6876C25.1139 11.5557 24.3411 11.2811 23.8735 10.6434C23.6202 10.3135 23.5387 9.88497 23.5241 9.47177C24.4726 9.6171 25.0249 10.5784 25.9148 10.872C26.7244 11.1399 27.6215 11.048 28.4024 10.7181C29.2652 10.3546 30.0176 9.71274 30.9461 9.52333Z" fill="url(#paint12_linear_114606_9)"/>
<path d="M2.63068 10.8817C3.11827 10.4679 3.73669 10.2587 4.33313 10.0496C4.02671 10.6895 3.08136 10.6037 2.82825 11.2871C2.62509 11.9008 2.87336 12.5735 2.64783 13.1902C2.5908 13.1081 2.53451 13.0271 2.47598 12.9461C2.48679 12.255 2.59639 11.5709 2.63068 10.8817Z" fill="url(#paint13_linear_114606_9)"/>
<path d="M3.91363 10.874C4.69923 10.5453 5.60875 10.685 6.41131 10.8921C7.14379 11.0937 7.85968 11.387 8.42693 11.8486C8.74817 11.6967 9.01889 11.4676 9.36005 11.3463C9.55922 11.2934 9.74436 11.3728 9.9048 11.4676C9.88378 11.8122 9.74141 12.1829 9.36263 12.3442C8.60839 12.662 7.7435 12.5284 6.93541 12.5613C6.90701 12.1393 6.66801 11.6735 6.16014 11.5612C5.12522 11.3347 4.11981 11.7832 3.09521 11.8445C3.20549 11.4421 3.46736 11.0498 3.91363 10.874Z" fill="url(#paint14_linear_114606_9)"/>
<path d="M31.1168 11.4675C31.2304 11.3155 31.4345 11.3296 31.6029 11.3059C31.6206 11.7249 31.674 12.1694 31.9394 12.514C32.4803 13.2494 33.5032 13.4111 34.0479 14.1438C33.6061 14.5454 33.0098 14.2324 32.499 14.2008C32.2256 14.1524 32.1487 14.4784 32.0361 14.6576C31.8639 14.9363 31.8469 15.2709 31.9747 15.5698C32.0846 15.7541 31.8309 15.8334 31.7433 15.9518C30.8011 16.8956 30.1677 18.0817 29.3756 19.1411C28.7529 20.0005 28.029 20.7947 27.1818 21.4413C25.7306 22.5508 24.118 23.4593 22.4007 24.0973C20.7835 24.7072 19.0465 24.8853 17.3337 25.0215C15.3582 25.1533 13.3738 25.1629 11.3983 25.0232C10.0199 24.911 8.63181 24.7552 7.30711 24.3451C6.76863 24.1683 6.20659 23.9603 5.82336 23.5262C5.2537 22.8927 4.94669 22.0793 4.72769 21.2717C4.28867 19.5269 4.23184 17.6949 4.48098 15.9185C4.59637 15.0787 5.01252 14.3274 5.41066 13.5919C5.60332 13.2855 5.5011 12.9059 5.61996 12.5798C5.6903 12.3911 5.92523 12.4971 6.07354 12.4831C6.42836 13.2326 6.21526 14.0944 6.47341 14.8649C7.85459 16.2267 9.79088 16.8894 11.6929 17.1272C14.4428 17.4471 17.2183 17.0263 19.8902 16.3842C23.7268 15.4325 27.4161 13.9767 30.9927 12.3207C31.0007 12.0359 30.9432 11.716 31.1168 11.4675Z" fill="url(#paint15_linear_114606_9)"/>
<path d="M18.5712 13.2659C18.5953 12.7383 19.1066 12.5129 19.5145 12.571C20.029 12.6382 20.5895 12.7898 20.9635 13.2199C21.0832 13.5549 21.0416 13.9375 21.0351 14.2919C20.9859 14.8082 20.8311 15.4293 20.3663 15.6518C20.1464 15.7724 19.91 15.6493 19.6943 15.5799C19.6943 15.418 19.6638 15.2459 19.7311 15.0954C19.8576 14.7877 20.1998 14.669 20.2974 14.3405C20.3738 14.1114 20.3039 13.871 20.2665 13.6426C19.7204 13.4062 19.105 13.5484 18.5712 13.2659Z" fill="url(#paint16_linear_114606_9)"/>
<path d="M21.1116 13.1753C21.0372 12.9673 20.974 12.6576 21.2439 12.5621C21.3151 12.5817 21.4554 12.6191 21.5258 12.6391C21.4312 12.7081 21.3365 12.7759 21.2415 12.844C21.2602 13.0944 21.4514 13.3017 21.7038 13.3541C22.6276 13.576 23.5892 13.2801 24.5174 13.4435C24.7209 13.4616 24.7861 13.6418 24.7535 13.8183C23.8977 13.3568 22.8984 13.7247 21.9805 13.6399C21.6486 13.6191 21.2296 13.5205 21.1116 13.1753Z" fill="url(#paint17_linear_114606_9)"/>
<path d="M2.47598 13.1903C2.51835 13.2046 2.60443 13.2338 2.64747 13.2487C2.87544 13.4998 3.37477 13.6192 3.71405 13.8184C3.41445 13.7988 3.09333 13.7691 2.86502 13.6531C2.61653 13.5376 2.53214 13.357 2.47598 13.1903Z" fill="url(#paint18_linear_114606_9)"/>
<path d="M27.9312 14.7798C29.1881 14.354 30.195 13.249 31.5709 13.1903C31.5923 13.95 31.2465 14.6898 30.6847 15.1815C29.9021 15.8787 28.8687 16.1876 27.8577 16.3308C28.1051 15.8412 27.8533 15.2967 27.9312 14.7798Z" fill="#FCFCFC"/>
<path d="M36.958 13.1903C37.0198 13.2606 37.0812 13.3319 37.1425 13.4022C37.0262 14.0692 36.8846 14.7333 36.6903 15.3872C36.0244 15.7242 35.404 16.1691 34.6308 16.3107C34.433 16.363 34.2365 16.3023 34.0473 16.2554C34.79 16.1523 35.5456 15.9067 36.0364 15.3992C36.6341 14.7838 36.8932 13.9755 36.958 13.1903Z" fill="url(#paint19_linear_114606_9)"/>
<path d="M16.8358 13.9374C17.6064 13.7243 18.429 13.8174 19.1821 14.0586C19.2078 14.4085 19.1813 14.769 18.9967 15.0746C18.1677 14.3165 17.0233 15.1415 16.0953 14.6945C16.1428 14.3023 16.4773 14.0287 16.8358 13.9374Z" fill="url(#paint20_linear_114606_9)"/>
<path d="M21.6673 16.4615C23.5355 16.0356 25.3518 15.4406 27.2387 15.0746C27.227 15.7965 26.8355 16.5137 26.1349 16.8991C24.9054 17.5924 23.3938 17.6661 22.0916 18.2151C21.9273 17.6349 21.8436 17.0389 21.6673 16.4615Z" fill="#FCFCFC"/>
<path d="M5.57286 17.9346C5.58902 17.1133 6.10948 16.3637 6.66643 15.7028C7.00384 16.7427 6.68103 17.8315 6.34311 18.8434C5.90401 18.6825 5.54365 18.3489 5.57286 17.9346Z" fill="#FCFCFC"/>
<path d="M28.8296 17.4123C29.289 17.1504 29.8072 16.9965 30.3338 16.959C29.4448 17.6832 29.2317 19.0791 28.0547 19.4714C27.9198 19.1737 27.8063 18.8457 27.8819 18.5151C27.9903 18.0165 28.4024 17.6534 28.8296 17.4123Z" fill="#FCFCFC"/>
<path d="M7.66211 19.2148C7.55942 18.4852 7.10297 17.533 7.84324 16.959C8.23217 17.3129 8.75411 17.4881 9.2797 17.6037C9.33751 18.0552 8.97445 18.4098 8.82931 18.8158C8.74562 19.0432 8.87176 19.2673 8.97041 19.4714C8.54792 19.3373 8.12665 19.119 7.66211 19.2148Z" fill="#FCFCFC"/>
<path d="M17.699 17.706C18.885 17.4251 20.073 17.149 21.2768 16.959C21.4477 17.5659 21.5058 18.1997 21.667 18.8084C20.743 18.913 19.8671 19.2688 18.9493 19.406C18.4151 19.4914 17.8723 19.4831 17.3354 19.4385C17.3409 18.8993 17.3257 18.3611 17.3398 17.8225C17.4402 17.7422 17.5808 17.7447 17.699 17.706Z" fill="#FCFCFC"/>
<path d="M9.28568 19.0713C9.72926 18.6719 9.46644 18.0141 9.85611 17.5871C10.8234 18.0867 11.9841 17.7939 13.0001 18.1413C12.6437 18.5152 12.9291 19.0289 12.872 19.4714C11.6697 19.4688 10.4194 19.5035 9.28568 19.0713Z" fill="#FCFCFC"/>
<path d="M13.8557 17.8638C14.6139 18.0042 15.3396 17.5891 16.0929 17.5871C16.0969 18.2139 16.0938 18.842 16.0954 19.4689C15.2764 19.4709 14.4584 19.4738 13.6397 19.4677C13.5322 18.893 13.8845 18.4302 13.8557 17.8638Z" fill="#FCFCFC"/>
<path d="M22.927 19.8226C24.2425 19.4808 25.4806 18.8771 26.6787 18.2151C26.5694 18.9294 26.723 19.7039 27.2381 20.2032C26.026 20.9534 24.9799 21.9896 23.6972 22.6118C23.6814 21.7953 22.9949 21.2394 22.9195 20.4432C22.8899 20.2362 22.9119 20.0285 22.927 19.8226Z" fill="#FCFCFC"/>
<path d="M17.4745 21.0841C18.8874 20.915 20.2209 20.4168 21.5398 19.932C21.5042 20.3804 21.4942 20.852 21.7132 21.2643C21.9664 21.7618 22.3193 22.2276 22.393 22.7905C21.1542 23.0785 19.9649 23.5737 18.6848 23.6848C18.2939 23.7286 17.9 23.6761 17.519 23.5952C17.6757 22.7612 17.336 21.9231 17.4745 21.0841Z" fill="#FCFCFC"/>
<path d="M5.62037 21.2323C5.5563 21.0747 5.56553 20.8958 5.58834 20.7277C5.73846 21.1672 5.99826 21.5319 6.14784 21.9718C6.2271 22.1789 6.18611 22.4117 6.11499 22.612C6.0311 22.1097 5.78651 21.6915 5.62037 21.2323Z" fill="#FCFCFC"/>
<path d="M7.33203 21.3558C8.02123 22.0191 8.38297 22.9546 8.66665 23.8682C8.13051 23.7233 7.5662 23.6578 7.0651 23.4003C6.91508 23.3336 6.86824 23.1619 6.8096 23.0209C6.89147 23.0964 6.97143 23.1731 7.05139 23.2521C7.22312 23.2018 7.42379 23.1822 7.54564 23.0269C7.7425 22.4363 6.97067 21.92 7.33203 21.3558Z" fill="#FCFCFC"/>
<path d="M13.6192 21.8083C14.8144 21.9149 16.0142 21.711 17.1562 21.3558C17.2163 22.3254 16.9332 23.3549 17.3334 24.2755C16.2765 24.6358 15.1487 24.439 14.0579 24.4711C13.9497 23.5768 13.7375 22.7006 13.6192 21.8083Z" fill="#FCFCFC"/>
<path d="M8.66644 21.9856C9.11939 21.9566 9.4949 22.2765 9.95465 22.2103C9.93132 22.8176 10.4057 23.2921 10.5236 23.868C10.0946 23.8107 9.6394 23.7931 9.26616 23.5669C9.31508 23.4249 9.40126 23.2706 9.32253 23.1223C9.17058 22.7122 8.80835 22.4013 8.66644 21.9856Z" fill="#FCFCFC"/>
<path d="M11.1432 22.1092C11.7172 21.9572 12.3842 21.8691 12.8867 22.294C13.4596 22.8193 13.5341 23.717 13.6195 24.4884C13.0462 24.5152 12.4656 24.4797 11.918 24.2688C11.7642 23.5034 11.3498 22.853 11.1432 22.1092Z" fill="#FCFCFC"/>
<path d="M25.3972 24.291C26.3787 23.8225 27.3886 23.3446 28.4761 23.2399C26.7209 23.8946 25.097 24.8586 23.4103 25.6737C21.2304 26.7336 18.8757 27.6218 16.436 27.512C15.5363 27.4015 14.6398 27.5955 13.7383 27.586C12.0067 27.5647 10.2544 27.7884 8.53886 27.4363C7.82873 27.276 7.0884 26.992 6.62574 26.3757C6.38634 26.0796 6.26172 25.7077 6.19046 25.333C6.81424 26.4254 8.00424 26.9481 9.14439 27.2178C10.5615 27.5325 12.0257 27.6368 13.4705 27.5047C15.4079 27.4184 17.3705 27.4363 19.2678 26.9594C21.4333 26.4104 23.3995 25.2843 25.3972 24.291Z" fill="url(#paint21_linear_114606_9)"/>
<path d="M27.299 24.4805C28.2718 23.9845 29.2231 23.3263 30.3335 23.2399C29.1274 24.0802 27.8131 24.743 26.4916 25.3664C21.2888 27.7547 15.5831 28.8859 9.90127 28.8923C8.77038 28.8988 7.61766 28.85 6.53045 28.4974C5.6679 28.218 4.86185 27.6571 4.40666 26.8347C4.39313 26.4875 4.25931 26.1027 4.3914 25.7742C4.43578 25.7476 4.52453 25.6953 4.5689 25.6684C4.57792 26.0909 4.57168 26.5141 4.57341 26.9366C5.06328 27.448 5.68176 27.8088 6.33353 28.0513C7.33372 28.4322 8.39874 28.5846 9.45647 28.6646C11.1188 28.7682 12.7857 28.6617 14.4401 28.4809C18.9182 27.9942 23.283 26.5718 27.299 24.4805Z" fill="url(#paint22_linear_114606_9)"/>
<path d="M11.1432 25.8744C12.3831 25.9006 13.6236 25.8263 14.8613 25.9302C15.6796 25.9344 16.5614 25.3598 17.3338 26.2547C15.9845 26.1102 14.6367 26.3738 13.2871 26.3806C12.5717 26.3332 11.836 26.378 11.1432 25.8744Z" fill="url(#paint23_linear_114606_9)"/>
<defs>
<linearGradient id="paint0_linear_114606_9" x1="19.5" y1="0" x2="19.5" y2="32.6615" gradientUnits="userSpaceOnUse">
<stop stop-color="#090808"/>
<stop offset="1" stop-color="#0D0D0D"/>
</linearGradient>
<linearGradient id="paint1_linear_114606_9" x1="18.5716" y1="2.5125" x2="18.5716" y2="6.28114" gradientUnits="userSpaceOnUse">
<stop stop-color="#090808"/>
<stop offset="1" stop-color="#0D0D0D"/>
</linearGradient>
<linearGradient id="paint2_linear_114606_9" x1="23.5238" y1="3.76866" x2="23.5238" y2="6.9092" gradientUnits="userSpaceOnUse">
<stop stop-color="#090808"/>
<stop offset="1" stop-color="#0D0D0D"/>
</linearGradient>
<linearGradient id="paint3_linear_114606_9" x1="10.8336" y1="4.39673" x2="10.8336" y2="6.90915" gradientUnits="userSpaceOnUse">
<stop stop-color="#090808"/>
<stop offset="1" stop-color="#0D0D0D"/>
</linearGradient>
<linearGradient id="paint4_linear_114606_9" x1="19.1902" y1="4.39673" x2="19.1902" y2="6.90915" gradientUnits="userSpaceOnUse">
<stop stop-color="#090808"/>
<stop offset="1" stop-color="#0D0D0D"/>
</linearGradient>
<linearGradient id="paint5_linear_114606_9" x1="13.3099" y1="5.653" x2="13.3099" y2="8.16544" gradientUnits="userSpaceOnUse">
<stop stop-color="#090808"/>
<stop offset="1" stop-color="#0D0D0D"/>
</linearGradient>
<linearGradient id="paint6_linear_114606_9" x1="22.9044" y1="6.28116" x2="22.9044" y2="10.6779" gradientUnits="userSpaceOnUse">
<stop stop-color="#090808"/>
<stop offset="1" stop-color="#0D0D0D"/>
</linearGradient>
<linearGradient id="paint7_linear_114606_9" x1="11.4526" y1="7.53728" x2="11.4526" y2="16.9589" gradientUnits="userSpaceOnUse">
<stop stop-color="#090808"/>
<stop offset="1" stop-color="#0D0D0D"/>
</linearGradient>
<linearGradient id="paint8_linear_114606_9" x1="29.4047" y1="8.16554" x2="29.4047" y2="9.42176" gradientUnits="userSpaceOnUse">
<stop stop-color="#090808"/>
<stop offset="1" stop-color="#0D0D0D"/>
</linearGradient>
<linearGradient id="paint9_linear_114606_9" x1="4.02414" y1="8.7934" x2="4.02414" y2="15.7026" gradientUnits="userSpaceOnUse">
<stop stop-color="#090808"/>
<stop offset="1" stop-color="#0D0D0D"/>
</linearGradient>
<linearGradient id="paint10_linear_114606_9" x1="34.6667" y1="8.7934" x2="34.6667" y2="13.1901" gradientUnits="userSpaceOnUse">
<stop stop-color="#090808"/>
<stop offset="1" stop-color="#0D0D0D"/>
</linearGradient>
<linearGradient id="paint11_linear_114606_9" x1="28.786" y1="9.42166" x2="28.786" y2="10.0498" gradientUnits="userSpaceOnUse">
<stop stop-color="#090808"/>
<stop offset="1" stop-color="#0D0D0D"/>
</linearGradient>
<linearGradient id="paint12_linear_114606_9" x1="29.7145" y1="9.42166" x2="29.7145" y2="15.7027" gradientUnits="userSpaceOnUse">
<stop stop-color="#090808"/>
<stop offset="1" stop-color="#0D0D0D"/>
</linearGradient>
<linearGradient id="paint13_linear_114606_9" x1="3.40455" y1="10.0496" x2="3.40455" y2="13.1902" gradientUnits="userSpaceOnUse">
<stop stop-color="#090808"/>
<stop offset="1" stop-color="#0D0D0D"/>
</linearGradient>
<linearGradient id="paint14_linear_114606_9" x1="6.50001" y1="10.6779" x2="6.50001" y2="12.5622" gradientUnits="userSpaceOnUse">
<stop stop-color="#090808"/>
<stop offset="1" stop-color="#0D0D0D"/>
</linearGradient>
<linearGradient id="paint15_linear_114606_9" x1="19.1908" y1="11.3059" x2="19.1908" y2="25.1242" gradientUnits="userSpaceOnUse">
<stop stop-color="#090808"/>
<stop offset="1" stop-color="#0D0D0D"/>
</linearGradient>
<linearGradient id="paint16_linear_114606_9" x1="19.8093" y1="12.5621" x2="19.8093" y2="15.7026" gradientUnits="userSpaceOnUse">
<stop stop-color="#090808"/>
<stop offset="1" stop-color="#0D0D0D"/>
</linearGradient>
<linearGradient id="paint17_linear_114606_9" x1="22.9044" y1="12.5621" x2="22.9044" y2="13.8183" gradientUnits="userSpaceOnUse">
<stop stop-color="#090808"/>
<stop offset="1" stop-color="#0D0D0D"/>
</linearGradient>
<linearGradient id="paint18_linear_114606_9" x1="3.09501" y1="13.1903" x2="3.09501" y2="13.8184" gradientUnits="userSpaceOnUse">
<stop stop-color="#090808"/>
<stop offset="1" stop-color="#0D0D0D"/>
</linearGradient>
<linearGradient id="paint19_linear_114606_9" x1="35.5949" y1="13.1903" x2="35.5949" y2="16.3308" gradientUnits="userSpaceOnUse">
<stop stop-color="#090808"/>
<stop offset="1" stop-color="#0D0D0D"/>
</linearGradient>
<linearGradient id="paint20_linear_114606_9" x1="17.6428" y1="13.8184" x2="17.6428" y2="15.0746" gradientUnits="userSpaceOnUse">
<stop stop-color="#090808"/>
<stop offset="1" stop-color="#0D0D0D"/>
</linearGradient>
<linearGradient id="paint21_linear_114606_9" x1="17.3333" y1="23.2399" x2="17.3333" y2="27.6366" gradientUnits="userSpaceOnUse">
<stop stop-color="#090808"/>
<stop offset="1" stop-color="#0D0D0D"/>
</linearGradient>
<linearGradient id="paint22_linear_114606_9" x1="17.3336" y1="23.2399" x2="17.3336" y2="28.8928" gradientUnits="userSpaceOnUse">
<stop stop-color="#090808"/>
<stop offset="1" stop-color="#0D0D0D"/>
</linearGradient>
<linearGradient id="paint23_linear_114606_9" x1="14.2385" y1="25.7524" x2="14.2385" y2="26.3806" gradientUnits="userSpaceOnUse">
<stop stop-color="#090808"/>
<stop offset="1" stop-color="#0D0D0D"/>
</linearGradient>
</defs>
</svg>
