<svg width="46" height="46" viewBox="0 0 46 46" fill="none" xmlns="http://www.w3.org/2000/svg">
<path d="M29.235 26.4492L24.546 21.931L24.2558 21.6726C23.3463 20.9225 22.1971 20.5102 21.0092 20.5077C19.8213 20.5053 18.6703 20.913 17.7578 21.6594L17.4518 21.931L3.4275 35.4548C3.20612 35.6678 2.92563 35.8119 2.62117 35.8691C2.31671 35.9264 2.00181 35.8941 1.71594 35.7765C1.43006 35.6588 1.18592 35.461 1.01409 35.2077C0.842267 34.9545 0.7504 34.6571 0.750002 34.3529V7.80208C0.750002 5.8986 1.52042 4.07308 2.89178 2.72712C4.26314 1.38115 6.12311 0.625 8.0625 0.625H33.9375C35.8769 0.625 37.7369 1.38115 39.1082 2.72712C40.4796 4.07308 41.25 5.8986 41.25 7.80208V18.3182C40.1751 18.2253 39.0925 18.365 38.0786 18.7275C37.0647 19.0899 36.1442 19.6664 35.382 20.4161L29.235 26.4492V26.4492ZM24.375 12.2232C24.375 13.5421 24.9088 14.8071 25.8591 15.7397C26.8093 16.6724 28.0981 17.1963 29.442 17.1963C30.7859 17.1963 32.0747 16.6724 33.0249 15.7397C33.9752 14.8071 34.509 13.5421 34.509 12.2232C34.509 10.9039 33.975 9.63868 33.0246 8.70583C32.0741 7.77297 30.785 7.2489 29.4409 7.2489C28.0967 7.2489 26.8076 7.77297 25.8572 8.70583C24.9067 9.63868 24.3728 10.9039 24.3728 12.2232H24.375ZM29.442 10.5625C29.8907 10.5625 30.3211 10.7375 30.6384 11.0489C30.9557 11.3603 31.134 11.7827 31.134 12.2232C31.134 12.6636 30.9557 13.086 30.6384 13.3974C30.3211 13.7089 29.8907 13.8838 29.442 13.8838C28.9933 13.8838 28.5629 13.7089 28.2456 13.3974C27.9283 13.086 27.75 12.6636 27.75 12.2232C27.75 11.7827 27.9283 11.3603 28.2456 11.0489C28.5629 10.7375 28.9933 10.5625 29.442 10.5625V10.5625ZM19.8165 24.2939L20.0055 24.1371C20.2903 23.9336 20.6328 23.8227 20.9851 23.82C21.3374 23.8172 21.6817 23.9227 21.9698 24.1217L22.1813 24.2939L26.85 28.7923L22.1025 33.4519C21.1191 34.4169 20.3988 35.6092 20.0078 36.919C19.2315 35.7353 18.0503 34.8983 16.8308 34.4169C15.276 33.803 13.7123 34.0636 12.4748 34.4942L12.2228 34.5825C11.1428 34.9535 10.2788 33.6815 11.0303 32.8357L11.5028 32.3035L19.8165 24.2939V24.2939ZM36.9728 21.9774L23.6933 35.0132C22.9193 35.7728 22.3702 36.7247 22.1048 37.767L21.1418 41.5476C20.343 41.923 19.5443 41.9937 18.5925 41.7795C18.309 41.7132 18.1875 41.393 18.3068 41.1325C19.2743 39.008 17.8793 37.2105 15.9893 36.4662C13.8405 35.616 10.9808 37.6035 8.58225 39.2664C7.25025 40.1939 6.06225 41.0176 5.21625 41.2009C4.035 41.4593 2.60175 40.9293 1.5465 40.3617C1.07625 40.1122 0.450752 40.5207 0.673502 40.9977C1.218 42.166 2.31825 43.4998 4.521 43.7692C6.726 44.0364 8.4945 43.0029 10.2585 41.9694C11.5703 41.2009 12.8798 40.4324 14.367 40.205C14.5605 40.1762 14.691 40.3993 14.6033 40.5715C14.0588 41.6404 13.8023 43.597 15.0938 44.5863C17.0018 46.0482 22.377 45.2311 23.7068 44.7806C23.8191 44.7691 23.9305 44.7492 24.0398 44.721L28.1573 43.7118C29.2202 43.451 30.1909 42.9113 30.9653 42.1505L44.247 29.1169C45.1866 28.1652 45.7073 26.889 45.6966 25.5638C45.6859 24.2385 45.1446 22.9706 44.1897 22.0337C43.2347 21.0967 41.9427 20.5659 40.5925 20.5558C39.2423 20.5456 37.9421 21.057 36.9728 21.9796V21.9774Z" fill="url(#paint0_linear_114672_72)"/>
<defs>
<linearGradient id="paint0_linear_114672_72" x1="3.64773" y1="1.22727" x2="45.3404" y2="46.9742" gradientUnits="userSpaceOnUse">
<stop stop-color="#94CEF2"/>
<stop offset="1" stop-color="#87B4D0"/>
</linearGradient>
</defs>
</svg>
