<svg width="35" height="33" viewBox="0 0 35 33" fill="none" xmlns="http://www.w3.org/2000/svg">
<path d="M27.2978 0V5.42678H22.2821C20.6952 5.42678 18.943 6.20142 17.4775 7.68195C16.0121 9.16248 14.4196 11.3588 11.8913 14.9708C9.35159 18.599 7.93727 20.7915 7.05527 21.7767C6.17327 22.762 6.31514 22.6775 5.03145 22.6775H0V26.9901H5.03145C6.95873 26.9901 8.8972 26.1846 10.2673 24.6541C11.6374 23.1236 12.9306 21.0035 15.4223 17.4439C17.9254 13.868 19.5167 11.7517 20.5414 10.7165C21.566 9.68138 21.6101 9.73945 22.2822 9.73945H27.2979V15.4021L35 7.70213L27.2978 0ZM0 5.42675V9.73942H5.03145C6.31514 9.73942 6.17327 9.65265 7.05527 10.6379C7.62274 11.2718 8.55756 12.6162 9.72373 14.3104C9.88178 14.0837 9.95627 13.9744 10.1235 13.7354C10.7588 12.8279 11.3358 12.0091 11.8688 11.2623C12.0543 11.0025 12.2097 10.7974 12.3855 10.5548C11.5974 9.41614 10.941 8.51308 10.2673 7.76052C8.8972 6.23003 6.95873 5.42675 5.03145 5.42675H0ZM27.2978 17.1361V22.6774H22.2821C21.61 22.6774 21.5659 22.7333 20.5413 21.6981C19.8636 21.0134 18.9037 19.7996 17.6302 18.0593C17.4762 18.2777 17.3515 18.4506 17.19 18.6815C16.2983 19.9553 15.6836 20.8743 15.0381 21.8261C15.9538 23.0388 16.7333 23.9808 17.4775 24.7326C18.9429 26.2132 20.6952 26.99 22.2821 26.99H27.2979V32.5381L35 24.8383L27.2978 17.1361Z" fill="white"/>
</svg>
