<svg width="25" height="25" viewBox="0 0 25 25" fill="none" xmlns="http://www.w3.org/2000/svg">
<path d="M24.0433 5.8792L19.1208 0.956738C18.7575 0.593457 18.2641 0.390625 17.7494 0.390625H1.35938C0.823535 0.390625 0.390625 0.823535 0.390625 1.35938V23.6406C0.390625 24.1765 0.823535 24.6094 1.35938 24.6094H23.6406C24.1765 24.6094 24.6094 24.1765 24.6094 23.6406V7.24756C24.6094 6.73291 24.4065 6.24248 24.0433 5.8792ZM8.625 2.32812H16.375V5.71875H8.625V2.32812ZM12.5 19.0996C10.0933 19.0996 8.14062 17.147 8.14062 14.7402C8.14062 12.3335 10.0933 10.3809 12.5 10.3809C14.9067 10.3809 16.8594 12.3335 16.8594 14.7402C16.8594 17.147 14.9067 19.0996 12.5 19.0996ZM12.5 12.3184C11.1619 12.3184 10.0781 13.4021 10.0781 14.7402C10.0781 16.0783 11.1619 17.1621 12.5 17.1621C13.8381 17.1621 14.9219 16.0783 14.9219 14.7402C14.9219 13.4021 13.8381 12.3184 12.5 12.3184Z" fill="#FEFEFE"/>
</svg>
